<?xml version="1.0" standalone="no"?>
<!DOCTYPE svg PUBLIC "-//W3C//DTD SVG 20010904//EN"
 "http://www.w3.org/TR/2001/REC-SVG-20010904/DTD/svg10.dtd">
<svg version="1.0" xmlns="http://www.w3.org/2000/svg"
 width="512.000000pt" height="512.000000pt" viewBox="0 0 512.000000 512.000000"
 preserveAspectRatio="xMidYMid meet">

<g transform="translate(0.000000,512.000000) scale(0.100000,-0.100000)"
fill="#000000" stroke="none">
<path d="M2254 5101 c-23 -10 -51 -33 -63 -50 -42 -59 -151 -255 -151 -272 0
-9 9 -27 19 -41 l20 -25 -48 -84 c-47 -82 -49 -84 -84 -81 -25 2 -40 -2 -53
-17 -11 -11 -102 -164 -204 -340 l-185 -321 -265 0 c-296 0 -314 -4 -376 -71
-34 -37 -556 -786 -619 -888 l-40 -64 -3 -1251 c-1 -778 1 -1275 7 -1314 18
-114 87 -210 185 -254 l51 -23 1900 0 1900 0 56 26 c109 51 177 138 198 252
15 85 -9 130 -69 130 -43 0 -69 -28 -76 -85 -9 -64 -51 -129 -100 -154 -38
-19 -82 -19 -1909 -19 -1852 0 -1870 0 -1904 20 -19 11 -43 33 -55 48 l-21 28
-3 1285 -2 1284 1583 0 1583 0 26 -27 c34 -38 37 -49 26 -120 -12 -81 2 -132
47 -172 33 -28 50 -35 150 -57 40 -9 45 -14 104 -112 28 -47 85 -82 134 -82
19 0 64 13 99 30 34 16 70 30 78 30 9 0 42 -13 75 -30 33 -16 68 -30 78 -30
16 0 17 -44 17 -790 0 -777 0 -790 20 -810 27 -27 81 -26 106 1 18 20 19 53
24 863 l5 841 25 45 c26 47 25 46 157 75 32 7 84 55 100 92 10 24 12 55 7 114
l-7 80 40 42 c61 64 73 87 73 140 0 58 -9 77 -68 140 l-45 49 7 84 c6 68 4 90
-10 119 -25 53 -72 84 -145 97 -76 13 -83 18 -114 77 -39 77 -99 121 -163 121
-15 0 -56 -14 -90 -30 -35 -17 -69 -30 -75 -30 -7 0 -41 14 -77 31 -52 25 -74
30 -110 26 l-45 -5 -52 76 c-120 175 -110 172 -477 172 -239 0 -287 2 -283 14
3 7 55 98 115 202 156 271 155 267 150 335 -7 98 -6 97 -528 399 -259 149
-487 278 -505 286 -46 19 -92 17 -141 -5z m-809 -1418 c12 -67 43 -101 155
-166 l105 -62 -68 -5 c-57 -4 -72 -9 -88 -29 -26 -32 -24 -67 6 -96 l24 -25
819 0 c814 0 819 0 846 21 33 26 35 73 4 106 -21 22 -27 23 -179 23 l-158 0
77 135 77 134 326 1 c376 0 324 16 423 -127 59 -86 63 -105 28 -135 -9 -9 -46
-20 -81 -26 -74 -13 -120 -44 -146 -98 -15 -31 -16 -48 -8 -105 11 -81 5 -99
-51 -159 -24 -26 -47 -56 -50 -68 l-7 -22 -1510 0 c-830 0 -1509 2 -1509 5 0
10 483 701 502 718 18 15 45 17 238 17 l218 0 7 -37z m2976 -280 c37 -66 85
-99 169 -116 l65 -13 -5 -34 c-16 -112 3 -174 73 -247 l40 -42 -40 -44 c-23
-25 -49 -60 -59 -78 -19 -36 -24 -121 -12 -176 7 -31 6 -32 -30 -38 -112 -17
-173 -59 -218 -147 -13 -26 -27 -48 -30 -48 -2 0 -27 12 -55 26 -82 41 -135
42 -215 5 -37 -17 -68 -30 -69 -29 -1 2 -15 27 -31 56 -43 82 -100 120 -207
137 l-38 6 6 67 c10 94 -6 143 -65 206 l-48 51 40 45 c66 73 82 119 73 212 -6
77 -6 78 17 78 43 0 126 30 158 57 18 14 45 50 62 80 16 29 34 53 38 53 4 0
32 -11 62 -25 73 -34 136 -33 213 4 43 21 62 26 68 17 4 -6 21 -35 38 -63z"/>
<path d="M4346 3118 c-13 -13 -61 -66 -106 -118 -46 -52 -86 -99 -91 -104 -4
-5 -20 6 -36 24 -66 79 -104 90 -148 45 -44 -43 -37 -64 68 -192 60 -74 72
-83 112 -83 28 0 48 19 204 200 103 120 121 145 121 174 0 25 -7 40 -26 55
-34 27 -67 27 -98 -1z"/>
<path d="M1123 2450 c-46 -19 -57 -83 -20 -118 l23 -22 1211 0 1212 0 20 26
c34 43 24 86 -26 112 -26 15 -2385 16 -2420 2z"/>
<path d="M1106 2147 c-15 -15 -25 -41 -29 -73 -13 -94 -77 -154 -180 -167 -26
-4 -59 -14 -73 -23 -53 -35 -54 -44 -54 -431 0 -333 1 -360 19 -389 21 -34 75
-64 117 -64 44 0 112 -39 139 -78 14 -20 28 -59 32 -86 4 -32 14 -58 29 -73
l23 -23 1206 0 1206 0 24 25 c16 15 25 35 25 56 0 49 37 117 80 145 20 13 63
29 94 34 73 12 114 35 137 80 17 32 19 62 19 373 0 376 -2 388 -65 427 -18 11
-54 23 -81 26 -55 8 -110 32 -136 61 -25 27 -48 87 -48 123 0 19 -9 40 -25 55
l-24 25 -894 0 -894 0 -20 -22 c-33 -36 -34 -77 -3 -108 20 -20 33 -20 864
-20 l845 0 27 -60 c27 -62 104 -144 160 -173 16 -8 55 -20 87 -27 l57 -11 0
-294 c0 -317 2 -305 -53 -305 -12 0 -49 -13 -82 -29 -74 -34 -148 -113 -172
-182 l-18 -49 -1110 0 -1110 0 -19 53 c-13 38 -35 69 -80 114 -62 60 -75 67
-193 99 -10 3 -13 71 -13 298 l0 296 28 6 c55 12 87 25 133 55 56 35 91 79
125 154 l25 55 113 0 c122 0 149 9 160 55 7 27 -7 62 -33 82 -11 9 -67 12
-179 13 -157 0 -164 -1 -186 -23z"/>
<path d="M1391 1747 c-48 -24 -48 -29 40 -317 97 -320 100 -325 185 -318 30 3
61 11 69 19 15 16 175 540 175 575 0 48 -98 73 -124 32 -7 -13 -37 -113 -67
-223 -29 -110 -55 -203 -59 -207 -3 -4 -32 90 -64 210 -34 125 -65 222 -74
230 -20 15 -50 15 -81 -1z"/>
<path d="M2010 1733 c-79 -42 -98 -83 -106 -238 -8 -145 7 -265 37 -303 44
-56 86 -76 166 -80 122 -7 196 35 224 126 7 23 9 104 7 218 -3 173 -4 182 -28
217 -37 53 -90 79 -174 85 -63 3 -77 1 -126 -25z m180 -133 c6 -10 10 -87 10
-170 0 -147 -1 -152 -25 -175 -13 -14 -34 -25 -45 -25 -24 0 -61 18 -72 34 -4
6 -8 83 -8 172 0 141 2 163 18 176 35 32 102 25 122 -12z"/>
<path d="M2392 1748 c-17 -17 -15 -84 4 -102 11 -11 35 -16 80 -16 l64 0 0
-244 c0 -242 0 -245 22 -260 29 -20 67 -20 96 0 22 15 22 18 22 260 l0 244 64
0 c45 0 69 5 80 16 18 18 21 66 6 95 -10 18 -23 19 -218 19 -149 0 -211 -3
-220 -12z"/>
<path d="M2910 1740 c-20 -20 -21 -30 -18 -311 3 -274 4 -291 22 -305 15 -11
59 -14 192 -14 193 0 204 4 204 65 0 55 -25 65 -157 65 l-113 0 0 70 0 70 69
0 c61 0 72 3 85 22 40 57 9 88 -85 88 l-69 0 0 75 0 76 118 -3 c89 -2 123 0
135 11 20 16 23 81 5 99 -8 8 -65 12 -190 12 -166 0 -179 -1 -198 -20z"/>
<path d="M1101 574 c-28 -35 -26 -69 4 -99 l24 -25 1206 0 1206 0 24 25 c14
13 25 36 25 50 0 14 -11 37 -25 50 l-24 25 -1210 0 -1210 0 -20 -26z"/>
</g>
</svg>
