<svg version="1.1" id="Layer_1" xmlns="http://www.w3.org/2000/svg" xmlns:xlink="http://www.w3.org/1999/xlink" x="0px" y="0px"
	 width="100%" viewBox="0 0 515 515" enable-background="new 0 0 515 515" xml:space="preserve">
<path fill="#010101" opacity="1.000000" stroke="#fff" stroke-width="3"
	d="
M239.539368,1.000001 
	C258.572388,11.738668 277.143494,22.479567 295.717621,33.215218 
	C307.691803,40.136154 319.298035,47.834080 331.752045,53.744942 
	C344.151703,59.630013 348.961212,72.836563 340.441315,85.439438 
	C332.992828,96.457451 327.045776,108.490288 320.430023,120.071732 
	C319.645508,121.445152 318.827148,122.799232 318.011566,124.184212 
	C319.050903,125.646339 320.498932,124.956444 321.681885,124.961227 
	C335.847717,125.018501 350.035614,125.484642 364.173553,124.853767 
	C376.889862,124.286331 385.659485,129.656387 392.017944,140.089462 
	C393.356415,142.285660 394.753113,144.448898 396.192200,146.580612 
	C398.004517,149.265091 400.464966,150.720032 403.780334,149.964203 
	C407.957397,149.011902 411.814453,150.423492 414.908936,152.636322 
	C418.984924,155.550980 422.327942,155.424942 426.582184,153.172394 
	C431.298126,150.675415 436.288910,148.737427 442.033234,149.918015 
	C447.513123,151.044235 451.527252,154.280411 453.284271,159.010971 
	C456.078979,166.535629 461.302185,169.238968 468.700134,170.082733 
	C477.374542,171.072083 482.054657,176.679245 481.973724,185.189301 
	C481.941193,188.606277 482.206329,191.985626 481.132721,195.437103 
	C480.087494,198.797287 482.605743,201.201508 484.915771,203.426208 
	C488.790985,207.158310 492.561951,210.888107 493.055756,216.813614 
	C493.618652,223.567505 490.171265,228.349838 485.777863,232.645996 
	C482.320923,236.026382 480.532745,239.087372 481.750916,244.599625 
	C484.206970,255.713303 479.545929,263.307892 470.208588,266.413330 
	C469.245422,266.733643 468.346069,267.061005 467.386292,266.983154 
	C457.322845,266.166901 452.062347,275.596466 452.048126,283.814545 
	C451.957123,336.312195 451.967224,388.810211 452.059082,441.307892 
	C452.067535,446.153107 450.575165,449.518188 445.411499,451.059937 
	C439.438110,451.253204 436.540375,448.993164 435.719086,443.756958 
	C435.330353,441.278687 435.474487,438.768036 435.474182,436.270447 
	C435.468292,390.116547 435.490356,343.962646 435.424255,297.808838 
	C435.419922,294.799103 436.734711,290.783447 433.156006,289.220520 
	C427.726807,286.849426 422.775635,281.889496 415.940613,284.808716 
	C413.947815,285.659882 412.051605,286.718323 410.052734,287.555908 
	C401.494202,291.142059 393.934113,289.065338 388.442261,281.618073 
	C387.451691,280.274811 386.515747,278.877808 385.784515,277.389801 
	C383.310638,272.355835 379.446075,269.842499 373.782562,268.892273 
	C361.068268,266.759094 355.737579,258.990845 357.373962,246.113312 
	C358.623199,236.282654 356.159607,233.100662 346.343872,231.832932 
	C343.689148,231.490067 341.023224,231.532608 338.358246,231.532532 
	C248.883011,231.529694 159.407761,231.532944 69.932526,231.519501 
	C66.594513,231.518997 63.270863,231.677505 59.479492,231.978958 
	C54.028362,231.382050 49.027153,231.631973 44.032074,231.576950 
	C40.680584,231.540054 38.747734,232.727020 38.539917,236.412811 
	C38.268444,241.227661 37.530426,245.999435 37.533382,250.854050 
	C37.578510,324.985840 37.564465,399.117615 37.565529,473.249420 
	C37.565582,476.914307 37.502869,480.579712 38.487083,484.167755 
	C40.564640,491.741699 45.777218,495.984406 53.601273,496.383453 
	C56.762718,496.544678 59.931103,496.323853 63.570934,496.513672 
	C66.542503,496.329285 69.040901,496.419067 71.537483,496.419037 
	C184.924393,496.416687 298.311310,496.416901 411.698212,496.414978 
	C413.862366,496.414948 416.029572,496.479279 418.189240,496.307343 
	C426.286652,495.662689 431.779297,491.233978 434.171631,483.440491 
	C434.758545,481.528625 435.105591,479.555206 435.638153,477.629730 
	C436.828735,473.325073 439.408325,470.674133 444.572937,470.721832 
	C451.938873,473.385498 453.851715,476.491333 451.897095,484.688507 
	C448.585480,498.576508 440.656342,508.541473 426.114563,512.633850 
	C299.312439,513.000000 172.624878,513.000000 45.468658,513.000000 
	C27.338238,510.004303 19.516176,493.403137 19.531694,480.597290 
	C19.631178,398.495148 19.593428,316.392822 19.549330,234.290588 
	C19.546722,229.437439 20.852777,225.206039 23.481438,221.144836 
	C38.415794,198.071625 54.761047,175.974411 70.269463,153.299210 
	C74.217201,147.527130 78.319496,141.860550 82.264549,136.085892 
	C87.964142,127.742996 95.852318,123.597130 105.943451,123.588036 
	C118.433647,123.576782 130.928757,123.381973 143.411667,123.680458 
	C148.550339,123.803337 151.676956,122.089325 154.190384,117.553085 
	C164.196747,99.493530 174.693054,81.709259 185.032501,63.837227 
	C188.768341,57.379730 191.833069,55.608631 198.019165,56.633011 
	C204.435211,61.564220 205.350830,64.627556 201.648514,71.304726 
	C192.377457,88.025085 182.553162,104.432693 173.125671,121.065834 
	C170.010071,126.562714 166.567871,131.873169 163.664261,137.486694 
	C161.341660,141.976974 161.549194,142.874512 166.000244,145.422043 
	C170.762054,148.147415 175.416992,151.054688 180.566376,153.854950 
	C186.227493,157.107254 191.722794,159.924194 196.901962,163.228256 
	C201.036896,165.866180 205.288452,166.794998 210.110657,166.759583 
	C229.245346,166.619034 248.382614,166.599991 267.516693,166.777435 
	C271.983368,166.818863 274.707123,165.549240 277.072540,161.439392 
	C293.171692,133.467804 309.215088,105.463104 325.434418,77.560425 
	C328.487396,72.308289 328.198547,71.378365 322.758575,68.249367 
	C299.685883,54.978222 276.686707,41.579529 253.245361,28.195669 
	C248.156631,24.942514 243.086349,22.396307 238.272522,19.429365 
	C234.698471,17.226549 232.523712,18.227409 230.560516,21.578503 
	C227.531509,26.748869 224.530167,31.937725 221.498428,37.105946 
	C218.456268,42.291931 214.298370,44.214970 208.165146,42.684593 
	C203.326797,38.244209 202.521866,34.022743 205.404602,28.762728 
	C209.072983,22.069223 213.079529,15.567809 216.871994,8.943674 
	C219.211594,4.857195 222.466919,1.973598 227.688675,1.226388 
	C231.692902,1.000000 235.385818,1.000000 239.539368,1.000001 
z"/>

	d="
M199.198090,57.927322 
	C193.426270,56.299980 190.113571,57.815029 186.965561,63.276058 
	C175.645950,82.912766 164.213760,102.485512 153.065964,122.219070 
	C151.766174,124.519943 150.523331,125.043747 148.222183,125.032600 
	C134.059708,124.964027 119.896690,124.981827 105.733902,125.003975 
	C96.296844,125.018730 89.043510,128.807419 83.599792,136.758484 
	C67.098602,160.860092 50.493401,184.894760 33.552921,208.687958 
	C29.798664,213.960876 26.565870,219.539841 22.827541,224.803040 
	C21.442835,226.752563 20.969011,229.167618 20.970034,231.683182 
	C21.004068,315.493744 20.838659,399.304901 21.153849,483.114288 
	C21.206949,497.233948 30.311583,508.044037 44.891182,512.638977 
	C31.174398,513.000000 17.348333,512.944214 3.523696,513.059692 
	C1.433218,513.077087 0.541595,512.714661 0.980287,510.522064 
	C1.108469,509.881409 1.000000,509.193390 1.000000,508.527100 
	C1.000000,340.787598 1.011882,173.048065 0.916808,5.308600 
	C0.914859,1.869903 1.413710,0.880990 5.186922,0.888633 
	C79.145279,1.038442 153.104019,1.000000 227.531342,1.000000 
	C217.451538,5.382830 215.053146,16.314116 209.194672,24.459509 
	C207.981552,26.146166 206.914948,27.978344 206.049438,29.866579 
	C204.215515,33.867413 204.185028,37.718292 207.894928,41.233410 
	C207.203751,47.894241 203.163681,52.750206 199.198090,57.927322 
z"/>
<path fill="#E9B782" opacity="1.000000" stroke="none" 
	d="
M445.022827,470.404663 
	C439.647339,471.986603 437.104675,475.077393 436.393097,480.777771 
	C435.010590,491.852478 427.509338,497.965179 416.164886,497.981201 
	C381.193573,498.030640 346.222198,498.003601 311.250824,497.998901 
	C229.151596,497.987854 147.052353,497.972565 64.490799,497.889954 
	C59.790771,493.831848 58.146935,488.680298 57.495964,483.107849 
	C57.303009,481.456085 57.395088,479.781311 57.395031,478.116608 
	C57.392231,398.703979 57.389008,319.291321 57.410049,239.878693 
	C57.410793,237.073441 57.030510,234.196579 58.697220,231.167755 
	C60.856110,230.693146 62.676910,230.483047 64.497742,230.482742 
	C157.985062,230.466873 251.472412,230.453247 344.959656,230.535736 
	C348.146362,230.538544 351.634644,229.365997 354.548004,231.888733 
	C358.270660,235.112259 361.039886,238.623932 359.222473,244.024765 
	C358.754120,245.416656 358.831360,246.987518 358.616699,248.470200 
	C357.280853,257.697754 362.528778,265.854523 371.835052,266.901215 
	C380.231934,267.845673 385.165283,271.529541 388.710144,279.183838 
	C392.753845,287.915222 401.870026,290.633453 410.236969,285.745148 
	C417.093323,281.739349 422.534790,282.642181 429.707092,285.446320 
	C436.711487,288.184753 436.917297,291.988251 436.897125,297.872101 
	C436.734924,345.198456 436.800751,392.525635 436.812775,439.852539 
	C436.814667,447.237915 437.739685,448.509369 444.726715,450.929016 
	C445.030853,457.391235 445.019806,463.668243 445.022827,470.404663 
z"/>
<path fill="#F7CF9C" opacity="1.000000" stroke="none" 
	d="
M122.667984,141.063141 
	C129.506668,140.870621 135.999252,140.832581 142.489441,140.686981 
	C144.332626,140.645630 145.076080,141.200958 145.276352,143.168076 
	C146.036102,150.630325 150.421310,155.504211 156.822281,158.961716 
	C161.627365,161.557205 166.294540,164.407974 170.992081,167.999710 
	C168.308380,167.999710 165.623306,167.944839 162.941238,168.011246 
	C157.511322,168.145660 154.096771,171.075302 154.108261,175.506470 
	C154.119705,179.920410 157.549820,182.962280 162.978470,182.975464 
	C186.806213,183.033356 210.634171,183.001099 234.462051,183.001221 
	C262.122375,183.001373 289.782715,183.003799 317.443054,182.995789 
	C319.432770,182.995224 321.461792,183.221100 323.351074,182.338715 
	C326.760742,180.746231 328.549561,178.078384 327.890350,174.323059 
	C327.150269,170.107071 324.244019,168.075089 320.087067,168.031387 
	C311.756592,167.943802 303.424530,168.003372 295.093140,167.991928 
	C294.446564,167.991043 293.800079,167.909988 292.214661,167.802536 
	C295.969910,161.282822 300.011841,155.415482 302.854004,149.015366 
	C305.841736,142.287506 310.111359,140.236633 317.400146,140.516632 
	C333.539307,141.136642 349.722198,140.901413 365.879669,140.603928 
	C371.375092,140.502762 375.004883,142.413620 377.796631,146.988892 
	C380.306732,151.102554 383.264496,154.942291 386.006592,158.915405 
	C389.036224,163.305145 387.557587,167.493927 382.314697,168.985519 
	C380.250214,169.572861 378.059082,169.730331 375.918274,170.031464 
	C365.849670,171.447800 359.717865,179.176788 361.780579,189.125244 
	C363.256042,196.241241 362.214569,201.822540 356.272644,206.307159 
	C354.860718,207.372803 353.355927,208.917862 352.896057,210.528534 
	C351.565247,215.189545 348.454010,215.560440 344.290527,215.555206 
	C254.144806,215.441910 163.998932,215.454895 73.387215,215.349182 
	C71.686516,213.526642 72.629097,212.015015 73.566391,210.672485 
	C89.581863,187.732620 105.532669,164.747696 121.557365,141.814285 
	C121.744659,141.546265 122.044342,141.365326 122.667984,141.063141 
z"/>
<path fill="#F84A46" opacity="1.000000" stroke="none" 
	d="
M252.706421,26.940712 
	C271.087036,37.124115 289.120117,47.410954 307.141815,57.717670 
	C313.489655,61.348042 319.772247,65.094177 326.158325,68.655296 
	C329.307587,70.411430 329.843842,72.552322 328.069305,75.622154 
	C310.685333,105.694962 293.322052,135.779770 276.012085,165.895203 
	C275.026733,167.609512 273.814911,168.030838 271.987671,168.027130 
	C249.522827,167.981491 227.057816,167.980896 204.592972,168.026505 
	C202.811447,168.030106 201.390976,167.351883 199.949875,166.510666 
	C193.492767,162.741394 187.030304,158.981354 180.292877,155.002563 
	C178.219421,152.302979 179.961609,150.289627 181.079010,148.382538 
	C194.715637,125.108772 208.075165,101.674774 221.621429,78.348846 
	C230.735748,62.654499 239.496704,46.755119 248.936249,31.249119 
	C249.881866,29.695816 250.613892,27.961102 252.706421,26.940712 
z"/>
<path fill="#D7A16F" opacity="1.000000" stroke="none" 
	d="
M58.659016,230.650238 
	C59.020302,314.786255 59.018852,398.767151 58.959080,482.748016 
	C58.955200,488.198151 62.364395,492.299347 64.014267,497.456909 
	C60.202953,497.871918 56.368343,498.114990 52.553776,497.934509 
	C44.174862,497.538055 37.952915,491.709473 36.743118,483.359406 
	C36.552685,482.045074 36.390930,480.711334 36.391850,479.386658 
	C36.446167,401.269409 36.497570,323.152100 36.644058,245.034973 
	C36.652725,240.413330 34.912216,234.393066 37.811649,231.505386 
	C40.946579,228.383133 47.014168,230.729340 51.791134,230.444092 
	C53.946301,230.315399 56.118347,230.469406 58.659016,230.650238 
z"/>
<path fill="#91B420" opacity="1.000000" stroke="none" 
	d="
M392.732971,181.247070 
	C397.276215,177.577545 400.274963,173.229355 402.422333,168.288513 
	C403.571198,165.645004 404.937958,164.672287 407.698395,166.440765 
	C416.882721,172.324646 426.179657,172.345505 435.368866,166.453491 
	C437.949738,164.798660 439.447052,165.112885 440.643341,168.035950 
	C444.642212,177.807190 451.648315,183.643570 462.478271,184.359772 
	C465.788452,184.578674 467.427429,185.576508 466.424652,189.691452 
	C464.028778,199.523056 466.405151,208.245026 474.473328,214.804825 
	C477.762268,217.478867 477.284241,219.473251 474.331329,221.846786 
	C466.116089,228.450150 464.217224,237.232239 466.404083,247.008682 
	C467.265656,250.860535 465.821381,251.756104 462.581238,251.974808 
	C452.061340,252.684860 444.874756,258.062103 440.945587,267.772766 
	C439.794159,270.618439 438.416412,271.885315 435.420898,269.897369 
	C430.735931,266.788239 425.393158,265.734253 419.487427,265.301147 
	C411.517487,263.180145 406.256470,257.812653 401.073364,252.405258 
	C383.378052,233.944260 379.679047,203.181381 392.732971,181.247070 
z"/>
<path fill="#EC3E3E" opacity="1.000000" stroke="none" 
	d="
M252.864838,26.555185 
	C242.537689,44.887955 232.007095,62.940731 221.498657,81.006416 
	C208.403137,103.519722 195.312439,126.035858 182.267838,148.578644 
	C181.284882,150.277328 180.092712,151.959595 180.021408,154.425385 
	C174.540176,151.684967 169.119339,148.479813 163.568466,145.518341 
	C160.098389,143.666977 159.899597,141.613693 161.810104,138.322281 
	C174.801514,115.940666 187.599182,93.446655 200.569443,71.052658 
	C203.267181,66.394814 203.451889,62.342751 198.974030,58.336243 
	C201.873688,52.739513 204.921478,47.465023 208.076233,41.811157 
	C215.536835,42.936375 217.044205,42.314713 220.754456,35.988819 
	C223.935165,30.565769 227.117050,25.140554 230.147064,19.633024 
	C232.015869,16.236120 234.046555,15.193027 237.661285,17.542816 
	C242.509338,20.694365 247.653946,23.389717 252.864838,26.555185 
z"/>
<path fill="#DAAC7B" opacity="1.000000" stroke="none" 
	d="
M122.634567,140.811279 
	C115.569656,153.329590 106.813728,164.819916 98.666710,176.722626 
	C90.613258,188.488632 82.294289,200.072754 74.131439,211.764313 
	C73.576485,212.559174 73.354149,213.586258 72.949234,214.880096 
	C64.857773,215.254868 56.794209,215.254868 48.686047,215.254868 
	C48.614552,213.430817 49.916367,212.464600 50.727451,211.295517 
	C65.700531,189.713501 80.777756,168.203217 95.645317,146.548935 
	C98.466301,142.440231 101.731819,140.304214 106.783455,140.562668 
	C111.928772,140.825867 117.096336,140.654297 122.634567,140.811279 
z"/>
<path fill="#819E0B" opacity="1.000000" stroke="none" 
	d="
M392.612854,180.992661 
	C393.270294,184.339676 390.953644,186.858536 389.854218,189.767410 
	C379.479523,217.216461 390.875031,249.464447 418.914185,264.962952 
	C415.052216,266.318359 411.277283,268.036194 407.650726,270.026733 
	C405.245972,271.346649 403.753662,271.186554 402.641937,268.451691 
	C398.495636,258.251801 391.035980,252.543045 379.884705,251.896729 
	C377.418671,251.753784 375.874084,250.994751 376.692902,247.814163 
	C379.489899,236.949860 376.502655,227.798462 367.859863,220.614807 
	C365.519867,218.669861 365.960663,217.198761 368.042419,215.476166 
	C376.418091,208.545624 379.373688,199.731476 376.737244,189.195023 
	C375.970306,186.129974 376.868805,185.087021 379.912598,184.640717 
	C384.151672,184.019180 388.494995,183.470078 392.612854,180.992661 
z"/>
<path fill="#6FB4E6" opacity="1.000000" stroke="none" 
	d="
M151.140808,303.991028 
	C157.900223,303.908112 164.276932,303.861450 171.091492,303.799469 
	C175.918320,309.508148 182.050919,309.546509 188.532806,309.529144 
	C237.839233,309.397034 287.146515,309.539429 336.452637,309.356445 
	C342.940369,309.332397 347.020447,310.632141 349.832245,317.402557 
	C353.790131,326.932404 361.768524,332.762665 372.037415,335.079437 
	C378.625092,336.565765 379.472992,337.499603 379.508423,344.097198 
	C379.594299,360.088196 379.599152,376.080017 379.504181,392.071014 
	C379.469147,397.973419 378.873230,398.628357 373.278656,399.718628 
	C361.550232,402.004211 353.428162,408.859375 348.753998,419.636627 
	C346.980499,423.725800 344.611542,425.577057 340.137360,425.573792 
	C277.171387,425.527985 214.205307,425.564148 151.239273,425.516174 
	C150.072144,425.515289 148.908524,425.432739 147.341583,425.058472 
	C144.947952,424.072357 144.707779,422.138397 144.192947,420.419830 
	C140.337357,407.549377 132.840775,398.007263 119.788658,393.447083 
	C115.893852,392.086273 113.864090,389.132812 113.785263,385.102722 
	C113.554306,373.295135 113.499550,361.482666 113.816147,349.676392 
	C113.918465,345.861115 115.881042,342.904358 119.570961,341.679718 
	C134.029419,336.881134 141.263855,325.998810 145.067734,311.649109 
	C147.132401,308.917084 149.285049,306.731934 151.140808,303.991028 
z"/>
<path fill="#020201" opacity="1.000000" stroke="none" 
	d="
M145.674622,423.604187 
	C159.512390,423.890228 173.004379,423.987488 186.496399,423.992371 
	C237.980164,424.011017 289.464020,423.960114 340.947479,424.086456 
	C344.508575,424.095184 345.882080,423.002014 347.170898,419.674744 
	C351.931671,407.384216 361.010162,399.946259 374.156219,398.073334 
	C377.172485,397.643585 377.988464,396.704529 377.968231,393.776642 
	C377.847443,376.283020 377.839996,358.787598 377.973938,341.294128 
	C377.997009,338.283783 376.998047,337.408112 374.090179,336.997589 
	C360.902191,335.135925 351.892181,327.645844 347.157898,315.360321 
	C345.851471,311.970215 344.373077,310.984222 340.864075,310.991791 
	C287.881042,311.106415 234.897659,311.051483 181.914413,311.103241 
	C176.979996,311.108063 172.905685,310.237946 171.676315,304.160461 
	C173.044510,297.779175 175.057510,296.084991 181.281769,296.082001 
	C237.607224,296.054993 293.932678,296.052155 350.258148,296.085022 
	C356.767578,296.088837 359.237793,298.457245 359.980347,304.911713 
	C361.116791,314.790009 367.045898,320.888824 376.886017,322.301208 
	C389.275787,324.079590 392.908447,328.242157 392.911407,340.690643 
	C392.915741,359.021423 392.927612,377.352203 392.906067,395.682953 
	C392.893555,406.331421 388.579132,411.247986 378.101044,412.665436 
	C366.755798,414.200195 361.491302,419.504059 359.930298,430.972168 
	C359.140228,436.776855 356.490631,438.976654 349.976105,438.981049 
	C315.647583,439.004242 281.319061,438.991852 246.990524,438.991852 
	C204.829758,438.991821 162.668976,438.993683 120.508209,438.990479 
	C111.636375,438.989807 110.095230,437.663177 108.887299,429.052368 
	C107.670746,420.380096 101.141563,413.965210 92.387672,412.841553 
	C81.310249,411.419647 77.932236,407.651855 77.929184,396.678375 
	C77.923660,376.847809 77.913574,357.017273 77.934082,337.186707 
	C77.943558,328.027985 81.618904,323.820068 90.635277,322.515594 
	C102.337372,320.822540 107.397202,315.681610 109.037331,303.818420 
	C109.725777,298.838867 112.220123,296.244781 117.247124,296.133362 
	C125.908264,295.941315 134.578018,295.987457 143.241516,296.114105 
	C147.783173,296.180511 150.795547,298.394867 151.488617,303.560486 
	C151.093048,307.083832 149.491913,309.354675 146.302246,310.861267 
	C142.002899,313.509155 137.536514,312.498810 133.351196,312.274841 
	C127.548920,311.964355 124.129250,313.382629 121.564888,319.315979 
	C117.410637,328.927917 109.213028,334.849121 99.175461,337.714081 
	C95.639343,338.723389 94.329712,340.312653 94.357094,343.918610 
	C94.476974,359.708069 94.456924,375.499359 94.368561,391.289246 
	C94.349937,394.617798 95.465256,396.491272 98.813698,397.366150 
	C110.201088,400.341492 118.152565,407.411499 122.552742,418.299072 
	C123.901268,421.635834 126.113243,422.594421 129.486389,422.654205 
	C134.767151,422.747681 140.112335,421.822845 145.674622,423.604187 
z"/>
<path fill="#050403" opacity="1.000000" stroke="none" 
	d="
M357.968262,270.045227 
	C361.483917,277.319855 358.550262,282.132996 350.742767,282.171173 
	C331.918976,282.263184 313.094391,282.203064 294.270142,282.203156 
	C236.964447,282.203491 179.658737,282.203308 122.353043,282.203278 
	C121.186935,282.203278 120.020653,282.216339 118.854759,282.200531 
	C112.657715,282.116455 109.034424,279.321167 109.096123,274.681122 
	C109.158020,270.025635 112.758797,267.200073 119.021980,267.195251 
	C161.001709,267.162842 202.981476,267.178162 244.961243,267.178070 
	C279.444611,267.178009 313.928009,267.184418 348.411377,267.168060 
	C351.776184,267.166473 355.106598,267.150574 357.968262,270.045227 
z"/>
<path fill="#020101" opacity="1.000000" stroke="none" 
	d="
M274.000000,467.952179 
	C223.334274,467.952179 173.168533,467.952179 123.002808,467.952179 
	C122.002823,467.952179 121.002838,467.954926 120.002861,467.951630 
	C112.840935,467.928009 109.124100,465.377045 109.089996,460.463470 
	C109.055908,455.552429 112.776146,452.950226 119.907959,452.949829 
	C196.239868,452.945496 272.571777,452.946777 348.903687,452.950256 
	C350.236328,452.950317 351.585480,452.872192 352.898590,453.045471 
	C357.151947,453.606873 359.631287,456.268219 359.717163,460.371429 
	C359.798950,464.279846 357.392273,466.895142 353.474274,467.688782 
	C351.863983,468.014984 350.159943,467.941711 348.498505,467.942657 
	C323.832336,467.956451 299.166168,467.952179 274.000000,467.952179 
z"/>
<path fill="#030401" opacity="1.000000" stroke="none" 
	d="
M428.859741,208.862747 
	C431.080170,206.355698 432.945404,203.992157 435.082703,201.907532 
	C438.301819,198.767822 442.324646,198.598343 445.424011,201.214355 
	C448.459229,203.776337 449.135956,208.074570 446.264404,211.489777 
	C437.811157,221.543503 429.198914,231.471344 420.389832,241.214233 
	C416.874939,245.101700 412.574524,244.976898 409.061127,241.060455 
	C404.848328,236.364349 400.922363,231.386703 397.165527,226.313736 
	C394.367004,222.534790 394.971130,218.104858 398.314240,215.676376 
	C402.035431,212.973297 405.491028,213.817749 408.588013,216.907364 
	C409.175201,217.493195 409.694366,218.148666 410.229584,218.784912 
	C415.214081,224.710190 415.198792,224.698792 420.121460,218.927261 
	C422.927582,215.637283 425.789551,212.394928 428.859741,208.862747 
z"/>
<path fill="#52A4D7" opacity="1.000000" stroke="none" 
	d="
M146.012146,423.442902 
	C139.373337,423.889221 132.722443,423.830536 126.081314,424.057831 
	C123.755211,424.137451 122.946037,423.113281 122.288727,421.173218 
	C117.967560,408.419250 109.061218,400.737976 95.928291,398.186493 
	C93.186089,397.653717 92.901443,396.464813 92.907806,394.228302 
	C92.958412,376.438171 92.987190,358.647522 92.881874,340.857849 
	C92.865715,338.127625 93.773857,337.365692 96.442787,336.818268 
	C108.945137,334.254059 117.659073,326.892853 121.949333,314.833893 
	C123.064560,311.699280 124.526413,310.883270 127.618347,311.000732 
	C133.427444,311.221436 139.252808,311.014313 145.539917,311.015564 
	C145.506516,323.258026 132.794662,339.937347 122.104691,342.108368 
	C116.836899,343.178192 114.828613,346.439941 114.942505,351.773102 
	C115.169853,362.419220 115.085228,373.074371 114.974731,383.724182 
	C114.927490,388.278503 116.582993,391.023346 121.129379,392.646698 
	C135.418045,397.748535 143.068649,408.531097 146.012146,423.442902 
z"/>
<path fill="#020304" opacity="1.000000" stroke="none" 
	d="
M232.474182,346.763977 
	C234.178436,350.298859 234.945587,353.698853 234.965790,357.228180 
	C235.014359,365.718628 235.150574,374.213959 234.934875,382.699249 
	C234.615646,395.257935 226.864487,402.074066 213.289429,402.070435 
	C200.362976,402.066986 192.316910,394.901062 191.976608,382.767700 
	C191.743332,374.449982 191.727066,366.118530 191.896469,357.798950 
	C192.165970,344.563538 200.276917,336.714203 213.525391,337.161560 
	C221.004196,337.414093 228.116348,339.130981 232.474182,346.763977 
z"/>
<path fill="#020405" opacity="1.000000" stroke="none" 
	d="
M309.122437,364.042297 
	C311.922424,364.046478 314.255676,364.002472 316.585968,364.066315 
	C319.849792,364.155701 321.479431,366.097260 321.560791,369.155426 
	C321.646545,372.380768 320.224640,374.642517 316.627502,374.725739 
	C313.631012,374.795105 310.623779,374.899811 307.636597,374.725983 
	C304.965088,374.570587 304.332092,375.672485 304.236115,378.203583 
	C303.798309,389.747345 303.718048,389.731812 315.092072,389.691193 
	C319.086731,389.676910 323.081726,389.733246 327.076447,389.770172 
	C331.174103,389.808075 331.958069,392.624298 331.973663,395.862854 
	C331.990234,399.305878 330.550476,401.701447 326.713989,401.705902 
	C316.887360,401.717377 307.060272,401.709381 297.234161,401.623657 
	C292.990723,401.586609 290.597961,400.021423 290.661713,395.046875 
	C290.883606,377.730072 290.786011,360.407990 290.669373,343.088867 
	C290.641479,338.942810 292.854828,337.262421 296.458923,337.218475 
	C306.616547,337.094513 316.776947,337.182953 326.936188,337.204773 
	C331.292999,337.214142 332.089752,340.152618 332.016846,343.625244 
	C331.942932,347.147430 330.343750,349.202057 326.504547,349.151428 
	C320.343109,349.070129 314.176422,349.251434 308.018799,349.077728 
	C305.251648,348.999664 304.011108,349.769348 304.259247,352.695129 
	C304.455597,355.010376 304.510529,357.379944 304.247986,359.681976 
	C303.846985,363.198090 305.163544,364.630310 309.122437,364.042297 
z"/>
<path fill="#020405" opacity="1.000000" stroke="none" 
	d="
M180.968262,363.983673 
	C177.741013,374.696198 174.446106,384.972137 171.516205,395.351135 
	C170.129395,400.263855 166.865326,401.925385 162.311310,401.979431 
	C157.749664,402.033600 153.874680,401.154938 152.294220,395.849976 
	C147.272568,378.994263 141.977509,362.220215 136.896072,345.381989 
	C135.641495,341.224701 137.338120,339.060333 142.263428,337.687531 
	C146.315598,336.558105 148.928085,337.545532 150.105103,341.990692 
	C153.757019,355.782806 157.606934,369.522491 161.471008,383.614349 
	C163.737015,380.445160 163.934738,376.868439 164.860977,373.598114 
	C167.755219,363.379211 170.394348,353.088287 173.176498,342.837280 
	C174.547791,337.784607 176.606583,336.418701 180.861206,337.573395 
	C186.491653,339.101532 187.776337,341.206177 186.218277,346.426422 
	C184.509521,352.151550 182.774124,357.868744 180.968262,363.983673 
z"/>
<path fill="#030507" opacity="1.000000" stroke="none" 
	d="
M255.048370,352.125854 
	C255.115768,350.094727 254.256912,349.639862 252.863602,349.661346 
	C250.532730,349.697296 248.200348,349.684113 245.869263,349.648804 
	C240.550339,349.568176 239.020874,348.110077 238.942169,343.399200 
	C238.862976,338.657867 241.266876,337.012817 245.779251,337.070770 
	C256.935577,337.214050 268.095215,337.180450 279.252777,337.103790 
	C283.365387,337.075531 284.891327,339.306366 285.010590,342.990295 
	C285.134827,346.827026 283.802368,349.515869 279.452057,349.649536 
	C278.952789,349.664886 278.453217,349.668579 277.953857,349.682220 
	C268.943817,349.928314 268.943817,349.928467 268.943817,358.815430 
	C268.943787,370.640045 268.960938,382.464661 268.936005,394.289215 
	C268.924683,399.650574 266.950531,401.666016 261.882080,401.640076 
	C256.872070,401.614441 255.069855,399.653351 255.062241,394.084625 
	C255.043350,380.261536 255.054993,366.438385 255.048370,352.125854 
z"/>
<path fill="#6DB0E2" opacity="1.000000" stroke="none" 
	d="
M206.191010,353.654846 
	C208.683517,349.457489 212.086884,348.508575 216.216492,349.776489 
	C220.309387,351.033112 221.142395,354.248962 221.122192,358.029175 
	C221.079559,366.015228 221.254318,374.004883 221.073471,381.987000 
	C220.951981,387.349152 218.326431,389.946136 213.607452,390.062531 
	C208.797867,390.181152 206.115051,387.903931 205.771820,382.440826 
	C205.177536,372.982056 204.972809,363.496918 206.191010,353.654846 
z"/>
</svg>